# xmcd
#
# Track frame offsets:
#	150
#	15714
#	27124
#	40747
#	54761
#	74089
#	92277
#	109540
#	122708
#	136588
#	148962
#	163108
#	177856
#	197950
#	206693
#	226776
#	237179
#	251552
#	266354
#	290929
#	306909
#	324221
#	339608
#	356263
#
# Disc length: 4756 seconds
#
# Revision: 0
# Processed by: cddbd v1.5.1PL2 Copyright (c) Steve Scherf et al.
# Submitted via: dBpowerAMP V4.0
#
DISCID=56129218
DTITLE=Токарев Вилли - MIX
DYEAR=1986
DGENRE=Ballad
TTITLE0=Здравствуйте, товарищи
TTITLE1=В шумном балагане
TTITLE2=Рыбацкая
TTITLE3=Чубчик
TTITLE4=Купите орешки
TTITLE5=Нью-Йоркский таксист
TTITLE6=Почему евреи уезжают
TTITLE7=Водочка
TTITLE8=Маша-Машенька
TTITLE9=Диетпитание
TTITLE10=Чикаго
TTITLE11=S.O.S.
TTITLE12=Над Гудзоном
TTITLE13=Воры-гуманисты
TTITLE14=Сочи
TTITLE15=Люська-хулиганка
TTITLE16=Небоскрёбы-небоскрёбы
TTITLE17=Ростовский урка
TTITLE18=Сингаррела
TTITLE19=Козырная карта
TTITLE20=Песня тракториста
TTITLE21=Люба-любонька
TTITLE22=Ещё не поздно
TTITLE23=Дорогие друзья
EXTD=
EXTT0=
EXTT1=
EXTT2=
EXTT3=
EXTT4=
EXTT5=
EXTT6=
EXTT7=
EXTT8=
EXTT9=
EXTT10=
EXTT11=
EXTT12=
EXTT13=
EXTT14=
EXTT15=
EXTT16=
EXTT17=
EXTT18=
EXTT19=
EXTT20=
EXTT21=
EXTT22=
EXTT23=
PLAYORDER=
